<?xml version="1.0" encoding="UTF-8" standalone="no"?>
<!DOCTYPE svg PUBLIC "-//W3C//DTD SVG 1.1//EN" "http://www.w3.org/Graphics/SVG/1.1/DTD/svg11.dtd">
<svg width="100%" height="100%" viewBox="0 0 340 270" version="1.1" xmlns="http://www.w3.org/2000/svg" xmlns:xlink="http://www.w3.org/1999/xlink" xml:space="preserve" xmlns:serif="http://www.serif.com/" style="fill-rule:evenodd;clip-rule:evenodd;stroke-linejoin:round;stroke-miterlimit:2;">
    <g transform="matrix(1,0,0,1,-86,-112.075)">
        <g transform="matrix(0.769231,0,0,0.769231,59.0769,59.0769)">
            <g transform="matrix(0.862023,0,0,1.7458,35.6443,-353.791)">
                <g transform="matrix(1,0,0,0.582991,-0.747477,165.566)">
                    <path d="M496.563,131.309L15.438,131.309C6.922,131.309 0,138.231 0,146.762L0,211.569L256,275.605L512,214.558L512,146.762C512,138.231 505.078,131.309 496.563,131.309Z" style="fill:rgb(130,49,51);fill-rule:nonzero;"/>
                </g>
                <g transform="matrix(1,0,0,0.641705,0,158.787)">
                    <path d="M0,240.373L0,381.407C0,415.532 27.641,443.173 61.781,443.173L450.219,443.173C484.36,443.173 512,415.532 512,381.407L512,240.357L256,296.535L0,240.373Z" style="fill:rgb(130,49,51);fill-rule:nonzero;"/>
                </g>
            </g>
        </g>
    </g>
</svg>
